<svg width="18" height="20" viewBox="0 0 18 20" fill="none" xmlns="http://www.w3.org/2000/svg">
<path d="M11.2346 17C12.0994 17 12.5563 18.024 11.9794 18.668C11.6043 19.0871 11.1451 19.4223 10.6317 19.6518C10.1183 19.8813 9.56235 20 9.00002 20C8.43769 20 7.88169 19.8813 7.36831 19.6518C6.85493 19.4223 6.39571 19.0871 6.02064 18.668C5.46876 18.052 5.86267 17.089 6.65451 17.007L6.76449 17.001L11.2346 17ZM9.00002 0C10.3577 0 11.5055 0.903 11.8744 2.141L11.9204 2.312L11.9284 2.355C13.0307 2.97671 13.97 3.85086 14.6694 4.9058C15.3687 5.96073 15.8081 7.16641 15.9516 8.424L15.9796 8.711L15.9986 9V11.931L16.0195 12.067C16.1564 12.8038 16.5641 13.4627 17.1623 13.914L17.3293 14.031L17.4912 14.13C18.3511 14.617 18.0511 15.896 17.1143 15.994L16.9983 16H1.00169C-0.0260941 16 -0.385019 14.636 0.508794 14.13C0.889744 13.9144 1.21889 13.618 1.47313 13.2616C1.72737 12.9052 1.90054 12.4974 1.98049 12.067L2.00148 11.924L2.00248 8.954C2.06344 7.64788 2.44355 6.37661 3.10953 5.25147C3.77552 4.12632 4.70708 3.18161 5.82268 2.5L6.07063 2.354L6.08063 2.311C6.22166 1.71283 6.54296 1.17241 7.00108 0.762846C7.4592 0.353278 8.03203 0.0943209 8.64209 0.0209999L8.82405 0.00399995L9.00002 0Z" fill="black"/>
</svg>
